HIERARCHY
ROOT Hips
{
	OFFSET 0.000000 0.000000 0.000000
	CHANNELS 6 Xposition Yposition Zposition Zrotation Yrotation Xrotation 
	JOINT LHipJoint
	{
		OFFSET 0.000000 0.000000 0.000000
		CHANNELS 3 Zrotation Yrotation Xrotation
		JOINT LeftUpLeg
		{
			OFFSET 1.363060 -1.794630 0.839290
			CHANNELS 3 Zrotation Yrotation Xrotation
			JOINT LeftLeg
			{
				OFFSET 2.448110 -6.726130 0.000000
				CHANNELS 3 Zrotation Yrotation Xrotation
				JOINT LeftFoot
				{
					OFFSET 2.562200 -7.039590 0.000000
					CHANNELS 3 Zrotation Yrotation Xrotation
					JOINT LeftToeBase
					{
						OFFSET 0.157640 -0.433110 2.322550
						CHANNELS 3 Zrotation Yrotation Xrotation
						End Site
						{
							OFFSET 0.000000 0.000000 0.000000
						}
					}
				}
			}
		}
	}
	JOINT RHipJoint
	{
		OFFSET 0.000000 0.000000 0.000000
		CHANNELS 3 Zrotation Yrotation Xrotation
		JOINT RightUpLeg
		{
			OFFSET -1.305520 -1.794630 0.839290
			CHANNELS 3 Zrotation Yrotation Xrotation
			JOINT RightLeg
			{
				OFFSET -2.542530 -6.985550 0.000000
				CHANNELS 3 Zrotation Yrotation Xrotation
				JOINT RightFoot
				{
					OFFSET -2.568260 -7.056230 0.000000
					CHANNELS 3 Zrotation Yrotation Xrotation
					JOINT RightToeBase
					{
						OFFSET -0.164730 -0.452590 2.363150
						CHANNELS 3 Zrotation Yrotation Xrotation
						End Site
						{
							OFFSET 0.000000 0.000000 0.000000
						}
					}
				}
			}
		}
	}
}
MOTION
Frames: 27
Frame Time: 0.008333
0.491279 17.253264 -2.547305 157.686900 -82.885496 -144.427965 -10.996735 0.621818 3.443261 -1.627307 -4.815242 -29.557012 0.428432 1.136600 35.714181 4.355503 27.577713 3.515325 6.237399 0.000000 -44.392000 7.894428 -1.347946 3.692288 11.331771 8.476869 -18.609398 1.915824 0.378921 14.412419 -2.644122 -10.146728 -10.303785 -0.207600 0.000000 -38.392000
0.518895 17.257757 -2.567631 154.547587 -82.662490 -141.643379 -10.956860 0.471797 3.408682 -1.974288 -5.753931 -30.941215 0.586593 1.340070 39.292791 4.324039 27.764059 5.717185 7.227000 -0.000000 -45.698599 8.035996 -1.299276 3.521548 10.841234 8.212120 -18.533343 1.839441 0.268232 15.029230 -2.614990 -9.991633 -10.446602 -0.160900 0.000000 -38.744400
0.548598 17.262691 -2.586696 151.643629 -82.394793 -139.131181 -10.911067 0.316916 3.353167 -2.371401 -6.618638 -32.336960 0.743673 1.535929 42.912208 4.261323 27.708852 8.295134 8.276400 0.000000 -47.302500 8.198028 -1.238449 3.339642 10.317112 7.930851 -18.405573 1.761195 0.157918 15.629044 -2.579428 -9.820819 -10.570461 -0.118200 0.000001 -39.136501
0.579875 17.268078 -2.604675 148.969484 -82.088313 -136.875043 -10.859144 0.157097 3.278409 -2.826035 -7.395294 -33.749887 0.892269 1.722772 46.550719 4.173988 27.373535 11.113082 9.269500 -0.000000 -48.646400 8.376987 -1.167769 3.152990 9.761168 7.638522 -18.238249 1.681339 0.049645 16.206891 -2.539019 -9.639613 -10.673925 -0.080100 0.000000 -39.564700
0.612426 17.273925 -2.621804 146.485185 -81.753285 -134.825229 -10.799940 -0.007970 3.187990 -3.342110 -8.081486 -35.191087 1.028081 1.901115 50.186222 4.070659 26.751162 14.026960 10.101500 0.000001 -49.431699 8.570125 -1.089767 2.968624 9.175046 7.340580 -18.048559 1.599698 -0.055398 16.759687 -2.496121 -9.456560 -10.756386 -0.047500 0.000000 -40.013900
0.645813 17.280125 -2.638339 144.162102 -81.398644 -132.937862 -10.731549 -0.180131 3.085928 -3.919053 -8.680245 -36.677979 1.150681 2.071896 53.795341 3.964952 25.905875 16.933140 10.731900 -0.000001 -49.872200 8.775054 -1.006524 2.792714 8.562067 7.043109 -17.859643 1.516065 -0.156753 17.293392 -2.453121 -9.279357 -10.821008 -0.020000 0.000000 -40.516900
0.679812 17.286586 -2.654533 141.940223 -81.038861 -131.143589 -10.652698 -0.356949 2.975213 -4.555101 -9.195421 -38.233184 1.262318 2.241627 57.381040 3.859141 24.855049 19.619633 11.081400 0.000000 -49.513900 8.990253 -0.920639 2.632544 7.926793 6.752778 -17.688794 1.429722 -0.253716 17.807711 -2.413476 -9.122677 -10.867304 0.001900 0.000000 -41.036900
0.714063 17.293122 -2.670576 139.788375 -80.684880 -129.397135 -10.562294 -0.538375 2.859129 -5.242425 -9.637438 -39.881429 1.370596 2.415150 60.943134 3.759372 23.687665 21.964937 11.165900 0.000000 -48.518100 9.213962 -0.833483 2.492915 7.275349 6.476844 -17.555584 1.340295 -0.346093 18.310497 -2.380155 -8.997834 -10.900035 0.019000 -0.000001 -41.575600
0.748653 17.299539 -2.686670 137.666847 -80.345169 -127.652079 -10.458948 -0.724946 2.741385 -5.970058 -10.026100 -41.640120 1.484806 2.595999 64.481909 3.669838 22.503244 23.897755 11.043200 0.000000 -47.278100 9.445414 -0.745295 2.375925 6.612635 6.219816 -17.472492 1.247158 -0.434055 18.808285 -2.355642 -8.915543 -10.921631 0.031700 -0.000001 -42.136700
0.783672 17.305575 -2.702933 135.549043 -80.025201 -125.876777 -10.341518 -0.917912 2.625074 -6.723831 -10.384800 -43.521950 1.613922 2.786319 68.000438 3.592693 21.387455 25.397322 10.787100 0.000000 -46.225601 9.683869 -0.655321 2.280932 5.943116 5.985139 -17.445406 1.149865 -0.517929 19.307692 -2.341882 -8.884155 -10.935873 0.041100 0.000000 -42.715800
0.819412 17.311009 -2.719450 133.427628 -79.728748 -124.063743 -10.210559 -1.117873 2.509866 -7.486281 -10.728357 -45.537149 1.767007 2.989195 71.513904 3.524480 20.366295 26.434491 10.432900 0.000000 -45.226200 9.927512 -0.562381 2.205261 5.274532 5.778926 -17.469633 1.048461 -0.597884 19.811026 -2.340699 -8.911684 -10.947503 0.047900 0.000000 -43.289400
0.856281 17.315705 -2.736341 131.288505 -79.453367 -122.202990 -10.064307 -1.327448 2.397434 -8.240073 -11.085066 -47.676315 1.947613 3.202183 75.008136 3.465460 19.468381 27.114178 10.047200 -0.000000 -44.827600 10.176685 -0.463891 2.142132 4.607111 5.599321 -17.532617 0.942679 -0.674635 20.318578 -2.352112 -8.999270 -10.956823 0.052800 0.000000 -43.858500
0.894908 17.319613 -2.753816 129.119582 -79.192867 -120.292615 -9.900750 -1.547630 2.286356 -8.972270 -11.472859 -49.926401 2.157471 3.423535 78.473443 3.411331 18.661973 27.526571 9.646600 -0.000000 -45.219000 10.433230 -0.356563 2.083461 3.937260 5.441485 -17.615801 0.832554 -0.749085 20.829514 -2.374953 -9.141544 -10.967717 0.056700 -0.000000 -44.388500
0.935906 17.322720 -2.771558 126.968526 -78.949076 -118.391501 -9.724844 -1.780278 2.170121 -9.652683 -11.889249 -52.272872 2.398037 3.653488 81.906057 3.353520 17.858784 27.738746 9.200900 0.000000 -45.975800 10.690182 -0.239557 2.020066 3.281898 5.318017 -17.681059 0.719239 -0.820852 21.326311 -2.411105 -9.350306 -10.975212 0.058900 0.000000 -44.900900
0.980109 17.325210 -2.789704 124.835853 -78.716067 -116.516548 -9.535856 -2.027335 2.045071 -10.263959 -12.341904 -54.689171 2.664778 3.887670 85.274882 3.287299 16.989359 27.903336 8.707000 0.000000 -47.379800 10.947322 -0.110398 1.941930 2.640477 5.227433 -17.696493 0.603100 -0.890695 21.797696 -2.459522 -9.622539 -10.976972 0.059200 -0.000001 -45.385600
1.028027 17.327344 -2.808720 122.703736 -78.482541 -114.664028 -9.330003 -2.287803 1.907531 -10.802932 -12.832563 -57.151229 2.951955 4.121769 88.548028 3.206959 15.974818 28.138808 8.143300 0.000000 -49.332501 11.209163 0.033908 1.839794 2.001614 5.155008 -17.636675 0.484744 -0.959569 22.236726 -2.516457 -9.940210 -10.977294 0.059000 0.000000 -45.761900
1.080054 17.329469 -2.828572 120.595471 -78.247904 -112.869265 -9.109403 -2.561910 1.751453 -11.252789 -13.347197 -59.641338 3.254489 4.353532 91.702233 3.106362 14.729103 28.514616 7.468600 -0.000001 -51.462200 11.472171 0.193039 1.706399 1.373261 5.104517 -17.467739 0.365243 -1.027457 22.624419 -2.581745 -10.305215 -10.968783 0.056900 -0.000001 -46.047500
1.136514 17.331859 -2.849451 118.499530 -78.008788 -111.134173 -8.872553 -2.848407 1.572531 -11.610456 -13.875157 -62.144211 3.566129 4.580128 94.711255 2.982610 13.197054 29.075800 6.650500 -0.000000 -53.408600 11.737490 0.367683 1.534521 0.753446 5.063908 -17.165969 0.245783 -1.094916 22.949101 -2.652698 -10.705603 -10.949402 0.052600 -0.000001 -46.209299
1.197539 17.334790 -2.871069 116.455264 -77.771303 -109.501778 -8.622819 -3.149679 1.369146 -11.850775 -14.398914 -64.654220 3.876775 4.798375 97.539707 2.839551 11.371024 29.891659 5.680300 -0.000000 -55.681699 11.995935 0.554205 1.325090 0.162388 5.061730 -16.712782 0.126823 -1.161518 23.195784 -2.733797 -11.163504 -10.913308 0.044100 0.000000 -46.259100
1.262784 17.338327 -2.893842 114.420033 -77.530987 -107.937239 -8.355914 -3.461046 1.138764 -11.991362 -14.905388 -67.170873 4.184446 5.007662 100.179229 2.678343 9.257883 30.868350 4.529099 0.000000 -57.313500 12.253147 0.753061 1.072973 -0.408695 5.065341 -16.103333 0.009992 -1.228298 23.363968 -2.819014 -11.649337 -10.860424 0.031400 0.000000 -46.160900
1.331656 17.342411 -2.917589 112.391168 -77.291902 -106.436775 -8.070998 -3.781294 0.882904 -12.030983 -15.384196 -69.698154 4.482584 5.205712 102.607217 2.508187 6.938719 31.968695 3.223199 0.000000 -58.540501 12.506122 0.961638 0.778819 -0.951302 5.071676 -15.338215 -0.103585 -1.295476 23.452879 -2.907986 -12.160180 -10.788781 0.013300 -0.000000 -45.920500
1.403284 17.346861 -2.942051 110.432249 -77.060630 -105.053723 -7.771783 -4.111384 0.603898 -11.957037 -15.806400 -72.259843 4.769668 5.392061 104.818894 2.337608 4.519490 33.095266 1.805200 -0.000000 -59.329700 12.744358 1.172783 0.455923 -1.442861 5.121864 -14.436927 -0.213673 -1.363070 23.472379 -3.006135 -12.718655 -10.700349 -0.011200 -0.000000 -45.529200
1.476728 17.351057 -2.967228 108.495180 -76.834291 -103.741211 -7.452893 -4.446775 0.304484 -11.793862 -16.172528 -74.861924 5.043624 5.564345 106.809389 2.176951 2.162724 34.156494 0.368500 -0.000000 -59.641300 12.972566 1.387123 0.100218 -1.891141 5.169160 -13.416658 -0.317965 -1.432273 23.438521 -3.105593 -13.285198 -10.597316 -0.041500 0.000000 -45.014400
1.550732 17.354384 -2.992787 106.622386 -76.615176 -102.529718 -7.114971 -4.786309 -0.010046 -11.544311 -16.466499 -77.526252 5.303121 5.720634 108.577030 2.035550 0.036288 35.075517 -0.973800 -0.000001 -59.638801 13.184828 1.599753 -0.278196 -2.286426 5.222909 -12.311314 -0.415064 -1.503571 23.375506 -3.206082 -13.854474 -10.487358 -0.076300 -0.000000 -44.389400
1.623912 17.356027 -3.018352 104.827023 -76.402612 -101.422866 -6.756881 -5.126664 -0.333695 -11.222954 -16.682050 -80.267987 5.547071 5.858982 110.125425 1.921163 -1.697354 35.795713 -2.099500 0.000001 -59.363001 13.379860 1.808169 -0.674459 -2.630584 5.262615 -11.156024 -0.502942 -1.577564 23.309938 -3.302524 -14.399435 -10.377146 -0.113300 -0.000000 -43.716200
1.694909 17.355261 -3.043538 103.193054 -76.195043 -100.485736 -6.380547 -5.466397 -0.658586 -10.830525 -16.797659 -83.112276 5.773325 5.978702 111.453874 1.839194 -2.917132 36.290166 -2.907700 -0.000000 -59.036100 13.550630 2.006581 -1.072008 -2.918458 5.311936 -10.004781 -0.580182 -1.654823 23.281412 -3.394710 -14.913970 -10.285060 -0.147500 0.000000 -42.983700
1.762408 17.351333 -3.067908 101.760970 -75.989931 -99.741905 -5.985763 -5.800915 -0.975730 -10.379411 -16.807841 -86.069987 5.975733 6.079550 112.552536 1.794322 -3.542703 36.585454 -3.328100 0.000000 -59.116900 13.695517 2.192512 -1.462474 -3.157366 5.359232 -8.906529 -0.644690 -1.735783 23.325947 -3.477321 -15.369576 -10.227361 -0.172400 0.000000 -42.226500
